<svg xmlns="http://www.w3.org/2000/svg" width="1em" height="1em" viewBox="0 0 24 24"><path fill="currentColor" d="M11.64.003C10.057.04 8.595.448 7.103 1.065c-2.07.873-4.706 2.881-6.312 6.67c-.375 1.057-1.878 6.091.792 10.413c2.167 3.507 4.957 5.177 8.371 5.654c3.407.475 5.255.064 7.41-.893c5.039-2.236 8.887-10.634 5.038-16.72c-1.519-2.81-5.498-5.274-9.855-5.084v.002c-1.03-.032-1.637.102-2.246.22c-.182-.047-.525.003-.545.4c0 .213.069.38.204.477c.135.096 1.264.93 2.094 1.813c-.398.044-.83.116-1.274.208c-.495-1.07-2.086-.097-3.144-.055c-.123.007-.242.024-.365.03c-.116-.894-.2-1.821-.178-2.473C8.464.951 11.115.378 12.915.35l.315-.008c.264-.003.285-.212.036-.246a10.07 10.07 0 0 0-1.627-.093zm-.193 1.53c3.912-.017 7.35 1.641 8.925 3.57c-.56-.291-1.767-.707-2.258-.816c-.265-.27-.599-.49-.888-.676c-.229-.146-.514-.092-.396.163c.045.1.22.267.362.435c-.835-.23-3.055-.407-4.111-.31c-.69-.775-1.477-1.716-2.423-2.34c.264-.016.528-.025.79-.026zm-4.856.426c-.013.339.074 1.328.186 2.282a29.98 29.98 0 0 0-1.433.177A10.231 10.231 0 0 0 2.707 7.88c-.1-.892-.152-1.635-.113-2.092C3.705 4.231 5.214 2.715 6.59 1.96Zm8.418 2.65c.488.016.988.051 1.466.1c-.859.307-1.237 1.062-1.658 1.662c-.008.013-.024.023-.034.034a19.522 19.522 0 0 0-1.165-1.787c.426-.025.903-.027 1.391-.01zm-2.375.12a13.327 13.327 0 0 1 1.48 2.153c-.681.33-1.59.582-1.96 1.11c-.153.22-.19.519-.196.842a19.973 19.973 0 0 0-3.283 1.089a34.829 34.829 0 0 1-.951-3.253c1.097-1.048 2.38-1.217 2.91-1.628a15.032 15.032 0 0 1 2-.313zm6.89.634c.45.171 1.029.408 1.486.657c.347.437 1.34 1.418 1.871 4.165c.478 2.474-.05 4.354-.212 4.898l-.163.64a15.31 15.31 0 0 1-.705 1.882c.077-.561.145-2.019.125-2.312c.136.042.425-.122.473-.286c.048-.165-.477-.42-.477-.42a17.562 17.562 0 0 0-.145-2.286c.12-.195.242-.383.367-.555a10.23 10.23 0 0 0-.157-1.333c.106.035.202.062.273.063c.24.003.24-.161.163-.253c-.049-.059-.278-.2-.545-.355a10.177 10.177 0 0 0-2.354-4.505ZM1.869 7.005s.051.896.095 1.55c0 0-.662.751-1 1.347c.135-1.221.423-1.85.905-2.897Zm5.352.232c.198 1 .436 1.829.751 2.978c-1.187.524-3.286 1.818-4.213 2.516c-.168-.425-.343-1.028-.5-1.647c.212-.624.643-1.06 1.25-1.121c1.04-.104 1.93-1.652 2.664-2.665c.016-.023.033-.04.048-.06zM2.07 9.478l.014.111a10.192 10.192 0 0 0-.34 2.294c.314.33.683.88 1.09 1.446c-.262.195-.767.543-.886.628c-.347.247-.342.636-.095.858c.137.122.417.07.52-.01c.303-.242.555-.433.902-.65c.127.332.247.632.363.918c-.148.16-.253.37-.288.677c-.115.992.828 1.77 1.623 1.997c.03.01.05.013.079.02c.042.064.08.124.125.19a4.89 4.89 0 0 0-.888.898c-.112.146-.237.365-.136.408c.104.042.454 0 .61-.028c.395-.077.699-.514.971-.675c.328.452.861 1.032 1.416 1.591c.024.102.046.21.074.3c.106.34.25.679.42 1.01c.4.187.815.34 1.24.475a7.065 7.065 0 0 0-.527.61c-3.426-1.073-5.963-3.96-6.869-6.988a14.796 14.796 0 0 1-.551-5.48c.047.01.157.061.32.016c.115-.079.524-.363.813-.616zm9.891.182c-.006.282-.037.55-.153.765c-.166.31-.09 1.209.113 1.503c.639.93 1.701.412 2.5.747c.366.153.61.407.815.71a13.582 13.582 0 0 0-4.832 1.196c-.781-1.66-1.455-3.83-1.455-3.83v-.003A16.394 16.394 0 0 1 11.96 9.66Zm-3.757 1.418c.423 1.262 1.028 2.95 1.447 3.852l-.183.093a34.547 34.547 0 0 0-2.757-.66c-.842-.173-.873-.128-1.82.147c-.136.039-.266.075-.392.113a30.624 30.624 0 0 1-.376-1.018a22.946 22.946 0 0 1 4.08-2.527Zm13.136 1.976c.051.463.087.916.109 1.325a7.837 7.837 0 0 0-.656-.249c.166-.344.35-.712.547-1.076zm-5.611 1.175c.16.28.34.56.585.81c.641.655-.372 1.595-.08 3.449h-.003c-.3.032-.597.069-.86.109c-.652.102-1.492.322-2.273.613c-.449-.713-1.65-2.448-2.258-3.757c1.221-.6 2.926-1.104 4.889-1.224zm4.755.556c.354.1.686.207.975.325c.036.521.035 2.31-.067 3.184a3.533 3.533 0 0 1-.537.757a8.258 8.258 0 0 0-1.076-.32c.066-.079.139-.153.204-.235c.227-1.52-.286-2.007.355-3.398zm-9.67 2.378c.482.811 1.057 1.693 1.502 2.383c-.693.336-1.499.856-2.26 1.427c.052-.878.07-1.746.247-2.209c.248-.647.44-1.128.511-1.6zm8.545 2.053c.463.054.926.131 1.208.202c-.627.793-1.492 1.454-2.413 2.028c.02-.345.033-.78.044-1.182c.412-.32.802-.668 1.161-1.048zm-2.952.01a6.5 6.5 0 0 0 .378.927c.16.324.347.56.549.721c.072-.045.139-.096.21-.143c-.005.355-.015.716-.036 1.064c-.243.16-1.41.688-1.868.836a19.838 19.838 0 0 1-2.066-2.71c.715-.3 1.815-.567 2.833-.694zm-3.628 1.002c.34.533 1.46 2.123 1.91 2.635c-.815.142-1.956.249-2.86.21c0 0-1.356-.9-1.7-1.246c.68-.565 1.781-1.235 2.65-1.599zm-3.156 2.053c.396.263.82.564 1.157.758c-.52-.06-1.131-.074-1.585-.229c.131-.171.265-.383.428-.528Z"/></svg>