<svg xmlns="http://www.w3.org/2000/svg" viewBox="0 0 9 9"><defs><style>.cls-1{fill:#fff;}</style></defs><g id="Layer_2" data-name="Layer 2"><g id="Layer_1-2" data-name="Layer 1"><path d="M8,0A1,1,0,0,1,9,1V8A1,1,0,0,1,8,9H1A1,1,0,0,1,0,8V1A1,1,0,0,1,1,0H8M7.75,7.75V5.1A1.63,1.63,0,0,0,6.12,3.47h0A1.44,1.44,0,0,0,5,4.12V3.57H3.57V7.75H5V5.28a.7.7,0,0,1,1.4,0V7.75H7.75m-5.81-5a.85.85,0,0,0,.84-.84h0a.84.84,0,0,0-1.68,0h0a.84.84,0,0,0,.84.84m.7,5V3.57H1.25V7.75Z"/><path class="cls-1" d="M7.75,7.75V5.1A1.63,1.63,0,0,0,6.12,3.47h0A1.44,1.44,0,0,0,5,4.12V3.57H3.57V7.75H5V5.28a.7.7,0,0,1,1.4,0V7.75H7.75m-5.81-5a.85.85,0,0,0,.84-.84h0a.84.84,0,0,0-1.68,0h0a.84.84,0,0,0,.84.84m.7,5V3.57H1.25V7.75Z"/></g></g></svg>