<svg
      xmlns="http://www.w3.org/2000/svg"
      viewBox="0 0 100 100"
      className="w-[inherit]">
     
     
      <path
        fill="#DE1414"
        d="M85.1 68.2c-.7 3.9-3.9 6.8-7.7 7.3-6.1.9-16.1 2-27.5 2-11.2 0-21.3-1.1-27.5-2-3.9-.6-7-3.5-7.7-7.3-.7-4.3-1.5-10.5-1.5-18.2s.7-13.9 1.5-18.2c.7-3.9 3.9-6.8 7.7-7.3 6.1-.9 16.1-2 27.5-2s21.3 1.1 27.5 2c3.9.5 7 3.5 7.7 7.3.7 4.2 1.7 10.5 1.7 18.2-.2 7.7-.9 13.9-1.7 18.2z"
      />
    
      <path fill="#ffffff" d="M42 63V37l22 13-22 13z" />
    </svg>